<svg width="32" height="32" viewBox="0 0 32 32" fill="none" xmlns="http://www.w3.org/2000/svg">
<g clip-path="url(#clip0_1309_4387)">
<path d="M24.64 9.4856L12.9687 21.1568L7.35934 15.5474L6.45435 16.4524L12.9687 22.9668L25.545 10.3906L24.64 9.4856Z" fill="#373E46"/>
<path d="M16 0C7.17749 0 0 7.17749 0 16C0 24.8225 7.17749 32 16 32C24.8225 32 32 24.8225 32 16C32 7.17749 24.8225 0 16 0ZM16 30.72C7.88313 30.72 1.27998 24.1168 1.27998 15.9999C1.27998 7.88307 7.88313 1.27998 16 1.27998C24.1169 1.27998 30.72 7.88313 30.72 16C30.72 24.1169 24.1169 30.72 16 30.72Z" fill="#373E46"/>
</g>
<defs>
<clipPath id="clip0_1309_4387">
<rect width="32" height="32" fill="white"/>
</clipPath>
</defs>
</svg>
