<svg width="28" height="28" viewBox="0 0 28 28" fill="none" xmlns="http://www.w3.org/2000/svg">
<path d="M0.672008 27.3332L2.47467 20.7092C1.28686 18.673 0.662802 16.3572 0.666674 13.9998C0.666674 6.63584 6.63601 0.666504 14 0.666504C21.364 0.666504 27.3333 6.63584 27.3333 13.9998C27.3333 21.3638 21.364 27.3332 14 27.3332C11.6437 27.337 9.32888 26.7134 7.29334 25.5265L0.672008 27.3332ZM9.18801 7.74384C9.01582 7.75453 8.84757 7.79988 8.69334 7.87717C8.5487 7.95908 8.41667 8.06147 8.30134 8.18117C8.14134 8.33184 8.05067 8.4625 7.95334 8.58917C7.46056 9.2305 7.19549 10.0177 7.20001 10.8265C7.20267 11.4798 7.37334 12.1158 7.64001 12.7105C8.18534 13.9132 9.08267 15.1865 10.268 16.3665C10.5533 16.6505 10.832 16.9358 11.132 17.2012C12.6032 18.4965 14.3563 19.4306 16.252 19.9292L17.0107 20.0452C17.2573 20.0585 17.504 20.0398 17.752 20.0278C18.1403 20.0078 18.5195 19.9026 18.8627 19.7198C19.084 19.6025 19.188 19.5438 19.3733 19.4265C19.3733 19.4265 19.4307 19.3892 19.54 19.3065C19.72 19.1732 19.8307 19.0785 19.98 18.9225C20.0907 18.8078 20.1867 18.6732 20.26 18.5198C20.364 18.3025 20.468 17.8878 20.5107 17.5425C20.5427 17.2785 20.5333 17.1345 20.5293 17.0452C20.524 16.9025 20.4053 16.7545 20.276 16.6918L19.5 16.3438C19.5 16.3438 18.34 15.8385 17.632 15.5158C17.5574 15.4833 17.4774 15.4648 17.396 15.4612C17.3048 15.4518 17.2126 15.4621 17.1257 15.4913C17.0387 15.5205 16.9591 15.568 16.892 15.6305V15.6278C16.8853 15.6278 16.796 15.7038 15.832 16.8718C15.7767 16.9462 15.7005 17.0024 15.6131 17.0332C15.5257 17.0641 15.4311 17.0683 15.3413 17.0452C15.2545 17.0219 15.1694 16.9925 15.0867 16.9572C14.9213 16.8878 14.864 16.8612 14.7507 16.8118L14.744 16.8092C13.9812 16.4761 13.275 16.0263 12.6507 15.4758C12.4827 15.3292 12.3267 15.1692 12.1667 15.0145C11.6421 14.5122 11.185 13.9439 10.8067 13.3238L10.728 13.1972C10.6715 13.1121 10.6258 13.0202 10.592 12.9238C10.5413 12.7278 10.6733 12.5705 10.6733 12.5705C10.6733 12.5705 10.9973 12.2158 11.148 12.0238C11.2735 11.8643 11.3905 11.6983 11.4987 11.5265C11.656 11.2732 11.7053 11.0132 11.6227 10.8118C11.2493 9.89984 10.8627 8.99184 10.4653 8.0905C10.3867 7.91184 10.1533 7.78384 9.94134 7.7585C9.86934 7.7505 9.79734 7.7425 9.72534 7.73717C9.54628 7.72827 9.36685 7.73006 9.18801 7.7425V7.74384Z" fill="#621F2A"/>
</svg>
